<?xml version="1.0" encoding="utf-8"?>
<!-- Generator: Adobe Illustrator 23.0.0, SVG Export Plug-In . SVG Version: 6.00 Build 0)  -->
<svg version="1.1" id="Capa_1" xmlns="http://www.w3.org/2000/svg" xmlns:xlink="http://www.w3.org/1999/xlink" x="0px" y="0px"
	 viewBox="0 0 347.9 298.6" style="enable-background:new 0 0 347.9 298.6;" xml:space="preserve">
<style type="text/css">
	.st0{display:none;}
	.st1{display:inline;fill:url(#SVGID_1_);}
	.st2{display:inline;fill:url(#SVGID_2_);}
	.st3{fill:#FCFCFC;}
</style>
<g class="st0">
	<linearGradient id="SVGID_1_" gradientUnits="userSpaceOnUse" x1="330.4731" y1="-51.1311" x2="-38.6904" y2="253.0596">
		<stop  offset="0" style="stop-color:#FFFFFF"/>
		<stop  offset="3.129057e-02" style="stop-color:#CDCDCD"/>
		<stop  offset="6.721203e-02" style="stop-color:#9A9A9A"/>
		<stop  offset="0.1027" style="stop-color:#717171"/>
		<stop  offset="0.1371" style="stop-color:#505050"/>
		<stop  offset="0.17" style="stop-color:#393939"/>
		<stop  offset="0.2008" style="stop-color:#2B2B2B"/>
		<stop  offset="0.2274" style="stop-color:#262626"/>
		<stop  offset="0.2687" style="stop-color:#282D28"/>
		<stop  offset="0.3288" style="stop-color:#2D402D"/>
		<stop  offset="0.4004" style="stop-color:#366036"/>
		<stop  offset="0.4802" style="stop-color:#428C42"/>
		<stop  offset="0.5264" style="stop-color:#4AA94A"/>
		<stop  offset="0.594" style="stop-color:#3C773C"/>
		<stop  offset="0.6615" style="stop-color:#304B30"/>
		<stop  offset="0.7141" style="stop-color:#293029"/>
		<stop  offset="0.745" style="stop-color:#262626"/>
		<stop  offset="0.7695" style="stop-color:#303030"/>
		<stop  offset="0.8106" style="stop-color:#4A4A4A"/>
		<stop  offset="0.8634" style="stop-color:#747474"/>
		<stop  offset="0.9258" style="stop-color:#AFAFAF"/>
		<stop  offset="0.9955" style="stop-color:#FAFAFA"/>
		<stop  offset="1" style="stop-color:#FFFFFF"/>
	</linearGradient>
	<path class="st1" d="M52.5,57.4h59v70.8L46,64.6c0,0-79.7,94.2,22.7,180.1h49.7v-93.6l59.4-100.6h111.2
		C289.1,50.4,165.6-49.1,52.5,57.4z"/>
	<linearGradient id="SVGID_2_" gradientUnits="userSpaceOnUse" x1="393.2759" y1="25.086" x2="24.1125" y2="329.2767">
		<stop  offset="0" style="stop-color:#FFFFFF"/>
		<stop  offset="3.129057e-02" style="stop-color:#CDCDCD"/>
		<stop  offset="6.721203e-02" style="stop-color:#9A9A9A"/>
		<stop  offset="0.1027" style="stop-color:#717171"/>
		<stop  offset="0.1371" style="stop-color:#505050"/>
		<stop  offset="0.17" style="stop-color:#393939"/>
		<stop  offset="0.2008" style="stop-color:#2B2B2B"/>
		<stop  offset="0.2274" style="stop-color:#262626"/>
		<stop  offset="0.2687" style="stop-color:#282D28"/>
		<stop  offset="0.3288" style="stop-color:#2D402D"/>
		<stop  offset="0.4004" style="stop-color:#366036"/>
		<stop  offset="0.4802" style="stop-color:#428C42"/>
		<stop  offset="0.5264" style="stop-color:#4AA94A"/>
		<stop  offset="0.594" style="stop-color:#3C773C"/>
		<stop  offset="0.6615" style="stop-color:#304B30"/>
		<stop  offset="0.7141" style="stop-color:#293029"/>
		<stop  offset="0.745" style="stop-color:#262626"/>
		<stop  offset="0.7695" style="stop-color:#303030"/>
		<stop  offset="0.8106" style="stop-color:#4A4A4A"/>
		<stop  offset="0.8634" style="stop-color:#747474"/>
		<stop  offset="0.9258" style="stop-color:#AFAFAF"/>
		<stop  offset="0.9955" style="stop-color:#FAFAFA"/>
		<stop  offset="1" style="stop-color:#FFFFFF"/>
	</linearGradient>
	<path class="st2" d="M89.4,256.9h68.4l-1.7-11.5H136l0.8-93l52.7-87.6h88.7v22.3h14.8V55.3c0,0,94.3,77.9,0,180.5v-91.3h-96
		l-0.8,36.2h15.9v-20.4l74.4,0.1L185,251h89C274,251,195.9,313.3,89.4,256.9z"/>
</g>
<g>
	<path class="st3" d="M51.9,60.8h60.1v72.1L45.3,68.1c0,0-81.2,96,23.2,183.4H119v-95.3l60.5-102.5h113.2
		C292.8,53.6,167-47.7,51.9,60.8z"/>
	<path class="st3" d="M89.4,263.9h69.7l-1.7-11.8h-20.5l0.9-94.7l53.7-89.2h90.3v22.7h15.1V58.6c0,0,96.1,79.3,0,183.8v-92.9h-97.8
		l-0.9,36.9h16.2v-20.8l75.7,0.1l-103.4,92.2h90.6C277.5,257.8,197.9,321.4,89.4,263.9z"/>
</g>
</svg>
