<?xml version="1.0" encoding="utf-8"?>
<!-- Generator: Adobe Illustrator 23.0.0, SVG Export Plug-In . SVG Version: 6.00 Build 0)  -->
<svg version="1.1" id="Capa_1" xmlns="http://www.w3.org/2000/svg" xmlns:xlink="http://www.w3.org/1999/xlink" x="0px" y="0px"
	 viewBox="0 0 347.9 298.6" style="enable-background:new 0 0 347.9 298.6;" xml:space="preserve">
<style type="text/css">
	.st0{fill:#262626;}
</style>
<g>
	<path class="st0" d="M48,58.2h60.6v72.7L41.3,65.5c0,0-81.9,96.8,23.4,185h51.1v-96.2l61-103.4H291C291,51,164.2-51.2,48,58.2z"/>
	<path class="st0" d="M85.9,263.1h70.3l-1.8-11.9h-20.6l0.9-95.5l54.2-90h91.1v22.9h15.2V56c0,0,96.9,80,0,185.4v-93.7h-98.6
		l-0.9,37.2H212v-21l76.4,0.1l-104.3,93h91.4C275.5,256.9,195.3,321,85.9,263.1z"/>
</g>
</svg>
